<svg width="259" height="259" viewBox="0 0 259 259" fill="none" xmlns="http://www.w3.org/2000/svg">
<path d="M125.453 12.1406C95.4008 12.1406 66.5793 24.0789 45.3291 45.3291C24.0789 66.5793 12.1406 95.4008 12.1406 125.453C12.1406 155.505 24.0789 184.327 45.3291 205.577C66.5793 226.827 95.4008 238.766 125.453 238.766C155.505 238.766 184.327 226.827 205.577 205.577C226.827 184.327 238.766 155.505 238.766 125.453C238.766 95.4008 226.827 66.5793 205.577 45.3291C184.327 24.0789 155.505 12.1406 125.453 12.1406Z" fill="#4CD091"/>
<path d="M125.453 12.1406C103.042 12.1406 81.1343 18.7863 62.5001 31.2372C43.866 43.6882 29.3424 61.3852 20.7661 82.0903C12.1897 102.795 9.94576 125.579 14.3179 147.559C18.6901 169.54 29.4821 189.73 45.3291 205.577C61.1762 221.424 81.3665 232.216 103.347 236.588C125.327 240.961 148.111 238.717 168.816 230.14C189.521 221.564 207.218 207.04 219.669 188.406C232.12 169.772 238.766 147.864 238.766 125.453C238.766 110.573 235.835 95.838 230.14 82.0903C224.446 68.3426 216.099 55.8511 205.577 45.3291C195.055 34.807 182.564 26.4605 168.816 20.766C155.068 15.0715 140.334 12.1406 125.453 12.1406ZM125.453 214.484C110.903 214.487 96.5737 210.923 83.7198 204.105C70.8658 197.287 59.8788 187.422 51.7203 175.374C43.5617 163.326 38.4803 149.463 36.9207 134.996C35.3611 120.53 37.3708 105.901 42.7741 92.3915C48.1773 78.8816 56.8093 66.9019 67.9147 57.5008C79.0201 48.0997 92.2604 41.5636 106.477 38.4646C120.693 35.3657 135.453 35.7982 149.463 39.7245C163.474 43.6507 176.309 50.951 186.844 60.9864L189.596 63.6978C190.648 64.777 191.66 65.8831 192.631 67.0162C203.844 79.9048 211.112 95.7473 213.568 112.653C216.025 129.559 213.565 146.815 206.483 162.362C199.401 177.908 187.995 191.089 173.628 200.331C159.26 209.573 142.537 214.486 125.453 214.484Z" fill="#F9E3AE"/>
<path d="M125.453 214.484C101.841 214.484 79.1952 205.104 62.4986 188.408C45.802 171.711 36.4219 149.066 36.4219 125.453H29.7041C27.3304 125.445 24.984 125.959 22.8311 126.959C20.6782 127.959 18.7716 129.42 17.2463 131.239C15.721 133.058 14.6143 135.19 14.0048 137.484C13.3952 139.778 13.2976 142.178 13.719 144.514C18.1987 170.9 31.8737 194.849 52.3213 212.118C72.7688 229.387 98.669 238.86 125.433 238.86C152.197 238.86 178.097 229.387 198.545 212.118C218.992 194.849 232.667 170.9 237.147 144.514C237.568 142.181 237.471 139.785 236.864 137.493C236.256 135.202 235.153 133.072 233.633 131.254C232.112 129.436 230.21 127.974 228.062 126.972C225.914 125.97 223.573 125.451 221.202 125.453H214.484C214.484 149.066 205.104 171.711 188.408 188.408C171.711 205.104 149.066 214.484 125.453 214.484Z" fill="#F6D397"/>
<path d="M125.453 8.09375C102.242 8.09375 79.5515 14.9768 60.2518 27.8724C40.9522 40.768 25.9099 59.097 17.0273 80.5416C8.1446 101.986 5.82049 125.583 10.3488 148.349C14.8772 171.114 26.0546 192.026 42.4676 208.439C58.8806 224.852 79.792 236.029 102.558 240.557C125.323 245.086 148.92 242.762 170.365 233.879C191.809 224.996 210.138 209.954 223.034 190.655C235.93 171.355 242.813 148.665 242.813 125.453C242.813 110.041 239.777 94.7803 233.879 80.5416C227.981 66.3029 219.337 53.3653 208.439 42.4675C197.541 31.5697 184.603 22.9251 170.365 17.0272C156.126 11.1293 140.865 8.09375 125.453 8.09375ZM125.453 234.719C103.842 234.719 82.7171 228.31 64.7484 216.304C46.7798 204.298 32.775 187.233 24.5049 167.267C16.2348 147.302 14.071 125.332 18.2871 104.136C22.5031 82.941 32.9096 63.4717 48.1907 48.1907C63.4718 32.9096 82.9411 22.503 104.137 18.287C125.332 14.071 147.302 16.2348 167.267 24.5049C187.233 32.7749 204.298 46.7798 216.304 64.7484C228.31 82.717 234.719 103.842 234.719 125.453C234.719 154.432 223.207 182.224 202.716 202.716C182.224 223.207 154.432 234.719 125.453 234.719Z" fill="#8D6C9F"/>
<path d="M125.453 202.344C124.38 202.344 123.351 202.77 122.592 203.529C121.833 204.288 121.406 205.317 121.406 206.391V214.484C121.406 215.558 121.833 216.587 122.592 217.346C123.351 218.105 124.38 218.531 125.453 218.531C126.527 218.531 127.556 218.105 128.315 217.346C129.074 216.587 129.5 215.558 129.5 214.484V206.391C129.5 205.317 129.074 204.288 128.315 203.529C127.556 202.77 126.527 202.344 125.453 202.344ZM149.734 202.668C149.427 201.664 148.742 200.82 147.824 200.312C146.905 199.804 145.826 199.673 144.813 199.946C143.799 200.219 142.932 200.875 142.393 201.775C141.854 202.676 141.686 203.75 141.924 204.772L144.028 212.582C144.313 213.623 144.999 214.509 145.936 215.044C146.874 215.579 147.985 215.72 149.026 215.435C150.067 215.151 150.953 214.465 151.488 213.527C152.023 212.59 152.164 211.479 151.879 210.438L149.734 202.668ZM88.0196 192.308C87.5577 192.04 87.0475 191.866 86.5182 191.797C85.989 191.727 85.4512 191.763 84.9359 191.902C84.4206 192.042 83.9379 192.281 83.5156 192.608C83.0933 192.934 82.7398 193.341 82.4754 193.805L78.4285 200.806C77.9447 201.731 77.837 202.807 78.1278 203.809C78.4186 204.812 79.0855 205.663 79.9892 206.185C80.8928 206.708 81.9634 206.861 82.9772 206.612C83.991 206.364 84.8697 205.734 85.4296 204.853L89.4765 197.852C89.7458 197.392 89.9217 196.884 89.9942 196.357C90.0667 195.829 90.0343 195.292 89.899 194.777C89.7636 194.262 89.5279 193.779 89.2054 193.355C88.8829 192.931 88.48 192.575 88.0196 192.308ZM168.431 193.805C167.871 192.924 166.992 192.294 165.979 192.045C164.965 191.797 163.894 191.95 162.991 192.472C162.087 192.995 161.42 193.846 161.129 194.848C160.838 195.851 160.946 196.927 161.43 197.852L165.477 204.853C165.73 205.336 166.078 205.764 166.5 206.109C166.923 206.455 167.411 206.712 167.935 206.864C168.459 207.016 169.009 207.06 169.551 206.994C170.092 206.929 170.615 206.754 171.088 206.481C171.56 206.208 171.973 205.842 172.3 205.405C172.628 204.968 172.864 204.47 172.993 203.94C173.123 203.41 173.144 202.859 173.056 202.32C172.967 201.782 172.771 201.267 172.478 200.806L168.431 193.805ZM106.069 199.794C105.033 199.523 103.932 199.673 103.007 200.211C102.081 200.75 101.407 201.633 101.132 202.668L99.0271 210.438C98.8679 210.957 98.8149 211.503 98.8712 212.043C98.9275 212.583 99.0919 213.106 99.3547 213.582C99.6175 214.057 99.9733 214.475 100.401 214.81C100.828 215.144 101.319 215.39 101.843 215.531C102.368 215.672 102.915 215.707 103.453 215.632C103.991 215.557 104.509 215.375 104.975 215.096C105.441 214.817 105.846 214.447 106.166 214.008C106.486 213.57 106.714 213.071 106.838 212.542L108.942 204.731C109.214 203.696 109.064 202.595 108.525 201.669C107.987 200.744 107.103 200.07 106.069 199.794Z" fill="#8D6C9F"/>
<path d="M171.142 90.2048L113.312 148.075L83.8108 118.573C83.0366 117.91 82.0408 117.564 81.0223 117.603C80.0038 117.643 79.0376 118.065 78.3169 118.786C77.5962 119.506 77.174 120.473 77.1346 121.491C77.0953 122.51 77.4417 123.505 78.1047 124.28L110.48 156.655C111.238 157.408 112.264 157.831 113.333 157.831C114.402 157.831 115.428 157.408 116.186 156.655L176.889 95.9514C177.552 95.1772 177.898 94.1814 177.859 93.1629C177.82 92.1444 177.397 91.1782 176.677 90.4575C175.956 89.7368 174.99 89.3146 173.971 89.2752C172.953 89.2359 171.957 89.5823 171.183 90.2453L171.142 90.2048Z" fill="#FAEFDE"/>
<path d="M155.198 45.8106C158.096 46.8967 160.933 48.1396 163.696 49.5338C164.26 49.8226 164.884 49.9751 165.517 49.9789C166.423 49.9735 167.302 49.6642 168.011 49.1004C168.721 48.5366 169.22 47.751 169.43 46.8695C169.64 45.9879 169.548 45.0614 169.169 44.2384C168.789 43.4154 168.145 42.7435 167.338 42.3303C164.313 40.8109 161.205 39.4599 158.031 38.2834C157.044 37.9772 155.977 38.06 155.05 38.5148C154.122 38.9697 153.403 39.7621 153.041 40.7297C152.679 41.6974 152.7 42.7669 153.101 43.7191C153.502 44.6713 154.252 45.4341 155.198 45.8511V45.8106ZM65.3571 65.357C74.8822 55.8679 86.5162 48.7658 99.3094 44.6303C112.103 40.4948 125.693 39.4432 138.97 41.5614C139.501 41.6464 140.044 41.626 140.568 41.5012C141.091 41.3763 141.585 41.1496 142.021 40.834C142.457 40.5183 142.826 40.1199 143.108 39.6614C143.39 39.203 143.579 38.6935 143.664 38.162C143.749 37.6306 143.729 37.0876 143.604 36.5641C143.479 36.0406 143.252 35.5467 142.937 35.1108C142.621 34.6749 142.223 34.3054 141.764 34.0235C141.306 33.7416 140.796 33.5527 140.265 33.4677C120.814 30.305 100.862 33.3971 83.2814 42.2986C65.7006 51.2001 51.3986 65.4516 42.435 83.0008C33.4715 100.55 30.3089 120.491 33.4027 139.953C36.4966 159.414 45.6872 177.391 59.651 191.296C60.4252 191.959 61.421 192.305 62.4395 192.266C63.458 192.227 64.4242 191.804 65.1449 191.084C65.8656 190.363 66.2879 189.397 66.3272 188.378C66.3665 187.36 66.0201 186.364 65.3571 185.59C57.4586 177.697 51.1928 168.326 46.9178 158.011C42.6428 147.696 40.4425 136.639 40.4425 125.473C40.4425 114.308 42.6428 103.251 46.9178 92.936C51.1928 82.621 57.4586 73.2494 65.3571 65.357ZM191.255 59.6509C188.59 56.9737 185.766 54.4601 182.797 52.1238C182.386 51.7486 181.901 51.4625 181.374 51.2832C180.847 51.1039 180.288 51.0354 179.734 51.0819C179.179 51.1283 178.639 51.2888 178.149 51.5533C177.659 51.8178 177.229 52.1805 176.886 52.6189C176.542 53.0572 176.293 53.5617 176.153 54.1008C176.014 54.6399 175.987 55.202 176.075 55.7519C176.163 56.3018 176.363 56.8276 176.663 57.2966C176.963 57.7656 177.357 58.1675 177.82 58.4774C180.532 60.6135 183.113 62.9109 185.549 65.357C193.442 73.2487 199.702 82.6177 203.974 92.929C208.245 103.24 210.444 114.292 210.444 125.453C210.444 136.614 208.245 147.666 203.974 157.977C199.702 168.289 193.442 177.658 185.549 185.549C185.126 185.912 184.782 186.358 184.539 186.861C184.296 187.363 184.159 187.909 184.138 188.467C184.116 189.024 184.21 189.58 184.414 190.099C184.617 190.619 184.926 191.09 185.32 191.485C185.714 191.879 186.186 192.188 186.705 192.391C187.225 192.594 187.78 192.688 188.338 192.667C188.895 192.645 189.442 192.509 189.944 192.266C190.446 192.023 190.893 191.679 191.255 191.255C208.702 173.801 218.503 150.132 218.503 125.453C218.503 100.774 208.702 77.1053 191.255 59.6509Z" fill="#8D6C9F"/>
</svg>
